<svg width="115" height="115" viewBox="0 0 115 115" fill="none" xmlns="http://www.w3.org/2000/svg">
<rect width="115" height="115" fill="#EAEAEA"/>
<g clip-path="url(#clip0)">
<path d="M68.4909 62.96C81.4862 62.96 92.0209 52.4253 92.0209 39.43C92.0209 26.4347 81.4862 15.9 68.4909 15.9C55.4957 15.9 44.9609 26.4347 44.9609 39.43C44.9609 52.4253 55.4957 62.96 68.4909 62.96Z" fill="#CDDA56" stroke="#263953" stroke-width="2" stroke-linecap="round" stroke-linejoin="round"/>
<path d="M58.6613 18.04C64.6113 21.88 68.4913 28.15 68.4913 35.24C68.4913 44.93 61.2513 53.09 51.3613 55.6" stroke="#263852" stroke-width="2" stroke-miterlimit="10"/>
<path d="M85.0114 22.65C82.1414 26.16 80.4414 30.49 80.4414 35.17C80.4414 41.69 83.7314 47.53 88.8914 51.41" stroke="#263852" stroke-width="2" stroke-miterlimit="10"/>
<path d="M69.3008 63.02C80.6408 41.97 72.5408 22 69.5608 16" stroke="#263852" stroke-width="2" stroke-miterlimit="10"/>
<path d="M21.3093 73.66H18.3693C16.7993 73.66 15.5293 72.39 15.5293 70.82V14.21C15.5293 12.64 16.7993 11.37 18.3693 11.37H21.3093C22.8793 11.37 24.1493 12.64 24.1493 14.21V70.82C24.1493 72.39 22.8793 73.66 21.3093 73.66Z" fill="#DFDFDE" stroke="#263852" stroke-width="2"/>
<path d="M90.0006 77.89L65.8906 54.53" stroke="#263852" stroke-width="2" stroke-miterlimit="10"/>
<path d="M95.6997 55.58C95.6997 55.58 87.3097 77.09 88.0497 100.73C88.0797 101.64 86.9897 102.11 86.3397 101.49L39.5597 56.28C39.3897 56.11 39.0997 56.29 39.1797 56.52C40.7497 60.89 47.1297 79.99 46.4797 100.74C46.4497 101.65 47.5397 102.12 48.1897 101.49L95.6997 55.58Z" stroke="#263852" stroke-width="2" stroke-miterlimit="10"/>
<path d="M81.1504 54.96L46.4804 88.55C46.2904 88.73 46.2904 89.03 46.4804 89.21L60.1404 102.73C60.5604 103.14 61.2304 103.13 61.6304 102.7C65.4104 98.66 82.9604 80.06 90.6504 74.07" stroke="#263852" stroke-width="2" stroke-miterlimit="10"/>
<path d="M68.6496 54.53L44.9096 77.54C44.7096 77.73 44.7196 78.05 44.9296 78.22L73.3896 102.6C73.9596 103.09 74.8196 103.05 75.3396 102.5L88.3896 88.87L53.3896 54.96" stroke="#263852" stroke-width="2" stroke-miterlimit="10"/>
<path d="M38.8404 55.13L24.1504 71.03V47.59L41.4104 47.58L38.8404 55.13Z" stroke="#263852" stroke-width="2" stroke-miterlimit="10"/>
<path d="M98.5098 55.13H41.6798C40.1098 55.13 38.8398 53.86 38.8398 52.29V50.42C38.8398 48.85 40.1098 47.58 41.6798 47.58H98.5098C100.08 47.58 101.35 48.85 101.35 50.42V52.29C101.35 53.85 100.08 55.13 98.5098 55.13Z" fill="#DFDFDE" stroke="#263852" stroke-width="2"/>
</g>
<defs>
<clipPath id="clip0">
<rect x="13" y="10" width="89.73" height="95.04" fill="white"/>
</clipPath>
</defs>
</svg>
